<svg xmlns="http://www.w3.org/2000/svg" viewBox="0 0 32 32">
  <defs>
    <linearGradient id="grad" x1="0%" y1="0%" x2="100%" y2="100%">
      <stop offset="0%" style="stop-color:#8B5CF6"/>
      <stop offset="100%" style="stop-color:#3B82F6"/>
    </linearGradient>
  </defs>
  <rect width="32" height="32" rx="6" fill="url(#grad)"/>
  <g fill="white">
    <rect x="5" y="5" width="8" height="8" rx="1"/>
    <rect x="19" y="5" width="8" height="8" rx="1"/>
    <rect x="5" y="19" width="8" height="8" rx="1"/>
    <rect x="7" y="7" width="4" height="4" fill="url(#grad)"/>
    <rect x="21" y="7" width="4" height="4" fill="url(#grad)"/>
    <rect x="7" y="21" width="4" height="4" fill="url(#grad)"/>
    <rect x="15" y="15" width="2" height="2"/>
    <rect x="19" y="19" width="2" height="2"/>
    <rect x="23" y="19" width="2" height="2"/>
    <rect x="19" y="23" width="2" height="2"/>
    <rect x="23" y="23" width="4" height="4" rx="1"/>
    <rect x="15" y="19" width="2" height="8"/>
    <rect x="19" y="15" width="8" height="2"/>
  </g>
</svg>
